<?xml version="1.0" encoding="UTF-8"?><svg id="a" xmlns="http://www.w3.org/2000/svg" viewBox="0 0 360.6 205.54"><defs><style>.b{fill:#f7ec13;}</style></defs><path class="b" d="M.01,175.23c3.15-10.37,11.4-16.83,18.61-24.04C65.99,103.78,113.42,56.42,160.77,9c7.78-7.79,16.67-11.03,27.48-7.71,4.26,1.31,7.73,3.85,10.83,6.95,51.05,51.03,102.12,102.04,153.13,153.12,13.41,13.43,10.34,33.82-6.32,41.67-8.76,4.13-17.36,3.06-25.29-2.51-1.9-1.34-3.6-3.01-5.25-4.67-44.09-44.05-88.17-88.11-132.18-132.24-2.14-2.15-3.24-2.49-5.6-.12-44.24,44.4-88.6,88.68-132.89,133.02-7.8,7.8-16.82,11-27.52,7.46-7.8-2.58-13.05-8.01-15.78-15.83-.37-1.05-.25-2.35-1.38-3.06v-9.86H.01Z"/></svg>