<?xml version="1.0" encoding="UTF-8"?><svg xmlns="http://www.w3.org/2000/svg" viewBox="0 0 500.88 500.88"><defs><style>.d{fill:#f7ec13;}.e{fill:#030303;}</style></defs><g id="a"/><g id="b"><g id="c"><g><circle class="d" cx="250.44" cy="250.44" r="250.44"/><path class="e" d="M433.52,335.91c-3.09,6.2-8.04,8.08-14.49,7.84-8.81-.33-17.64-.02-26.46-.14-2.5-.03-3.72,.73-4.65,3.19-6.45,17.04-18.57,27.52-36.67,30.49-16.03,2.63-29.85-2.19-41.2-13.67-4.7-4.75-8.22-10.49-10.29-16.91-.78-2.42-2.01-3.09-4.38-3.08-20.14,.06-40.29,.07-60.43-.03-2.55-.01-3.7,.81-4.63,3.25-6.87,18.07-20.21,28.47-39.17,30.9-13.45,1.72-25.64-2.37-35.88-11.48-6.14-5.46-10.9-11.96-13.32-19.89-.74-2.43-2.02-2.77-4.15-2.75-8.7,.08-17.4,.06-26.1,.02-7.09-.03-12.37-5.16-12.42-11.98-.05-7.19,5.03-12.13,12.51-12.13,8.22,0,16.45-.12,24.67,.06,3.08,.07,4.5-.88,5.62-3.91,6.33-17.14,18.57-27.44,36.68-30.51,15.91-2.69,29.6,2.1,41.03,13.13,5.07,4.89,8.73,11,10.75,17.84,.79,2.7,2.12,3.45,4.8,3.44,19.79-.1,39.57-.12,59.36,0,2.95,.02,4.08-1.09,5-3.74,5.5-15.78,16.58-25.74,32.61-30.02,23.31-6.23,47.94,7.04,55.62,29.89,.95,2.84,2.29,4.03,5.34,3.87,4.4-.24,8.82-.14,13.23-.04,2.31,.05,3.19-.87,3.18-3.16-.04-17.88-.04-35.76,0-53.64,0-2.27-1.33-3.71-2.59-5.3-4.11-5.21-8.28-10.38-12.21-15.73-1.56-2.12-3.37-2.56-5.8-2.55-27.89,.06-55.78,.04-83.67,.04-9.48,0-13.75-4.23-13.75-13.64,0-24.55,0-49.11,0-73.66,0-4.92,0-4.94-4.9-4.94-58.29,0-116.57,0-174.86,.01-4.57,0-8.43-1.21-10.77-5.54-2.56-4.73-2.49-9.39,.63-13.77,2.53-3.55,6.27-4.84,10.56-4.83,17.16,.02,34.33,.01,51.49,.01,46.13,0,92.26,.12,138.38-.12,7.65-.04,14.18,5,13.7,13.56-.53,9.43-.12,9.45,9.49,9.45,12.28,0,24.55,.06,36.83-.02,6.71-.05,11.42,2.53,14.49,8.79,9.32,19.03,19.06,37.86,28.38,56.89,5.12,10.45,12.55,19.23,19.48,28.39,2.93,3.87,6.16,7.52,8.79,11.89,.18,28.06,.18,55.97,.18,84.21m-117.75-126.68c.04,6.48-.63,5.89,6.01,5.9,17.52,.02,35.04,.02,52.55-.01,1.37,0,2.85,.42,4.12-.52,.26-1.2-.36-2.11-.83-3.05-6.42-12.88-12.89-25.74-19.23-38.66-.98-1.99-2.34-2.33-4.29-2.32-11.44,.06-22.88,.12-34.32-.04-3.11-.04-4.14,.87-4.09,4.04,.17,11.32,.07,22.64,.07,34.66m8.97,133.15c5.38,7.8,12.45,12.19,22.26,10.8,12.69-1.8,21.15-13.26,18.82-26.04-2.43-13.31-15.75-20.72-27.88-17.43-11.66,3.16-21.64,18.38-13.2,32.68m-130.58,9.49c1.26-.65,2.56-1.23,3.77-1.96,8.44-5.07,12.62-15.05,9.8-24.56-2.99-10.08-11.2-16.6-21.67-16.43-9.42,.14-17.72,4.86-21.18,16.02-2.57,8.31-.46,15.97,5.6,21.91,6.41,6.28,14.29,8.6,23.68,5.03Z"/><path class="e" d="M67.35,222.15c3.94-5.81,9.51-6.43,15.77-6.39,31.2,.19,62.4,.08,93.59,.09,8.39,0,12.46,3.93,12.47,12,0,7.59-4.67,12.09-12.71,12.1-31.44,.02-62.87-.11-94.31,.14-6.16,.05-10.89-1.6-14.6-6.74-.22-3.68-.22-7.27-.22-11.2Z"/><path class="e" d="M145.31,194.2c-15.97,0-31.58-.21-47.19,.1-6.79,.14-12.43-5.1-12.44-11.78,0-7.35,4.71-12.36,12.22-12.41,12.63-.1,25.26-.03,37.9-.03,20.14,0,40.28-.04,60.42,.02,6.32,.02,11.07,4.38,12.18,10.86,.84,4.93-2.47,10.44-7.42,12.62-1.51,.66-3.01,.61-4.54,.61-16.92,.02-33.84,.02-51.12,.02Z"/><path class="e" d="M144.58,260.9c4.67,.24,9.13-.83,13.1,2.08,4.08,3,6.24,8.61,4.84,13.57-1.42,5.03-6,8.45-11.44,8.45-17.74,.01-35.48,.02-53.23,0-7.39,0-12.1-4.66-12.15-11.93-.05-7.08,4.84-12.12,12.09-12.15,15.48-.07,30.96-.02,46.79-.02Z"/></g></g></g></svg>