<svg version="1.1" id="Layer_1" xmlns="http://www.w3.org/2000/svg" xmlns:xlink="http://www.w3.org/1999/xlink" x="0px" y="0px"
	 width="100%" viewBox="0 0 512 512" enable-background="new 0 0 512 512" xml:space="preserve">
<path fill="rgb(240, 240, 240)" opacity="1.000000" stroke="none" 
	d="
M513.000000,376.531342 
	C508.678162,385.205505 501.752380,387.827820 492.736542,387.490692 
	C480.420288,387.030182 468.072845,387.466339 455.741943,387.293671 
	C452.250183,387.244781 450.544800,388.310120 449.241089,391.756653 
	C440.228424,415.582153 423.270508,430.234741 397.966431,434.387390 
	C375.555817,438.065125 356.227264,431.321198 340.362823,415.277069 
	C333.794128,408.633942 328.864655,400.608154 325.980652,391.629211 
	C324.893555,388.244690 323.166504,387.310944 319.863159,387.320740 
	C291.696930,387.404236 263.530029,387.415222 235.364136,387.282837 
	C231.799622,387.266113 230.187714,388.408600 228.889297,391.824585 
	C219.284531,417.093414 200.632874,431.639038 174.115860,435.034515 
	C155.306274,437.443085 138.268387,431.727539 123.946693,418.982269 
	C115.361687,411.342224 108.701706,402.252441 105.324219,391.167480 
	C104.289902,387.772858 102.506256,387.300385 99.522209,387.327484 
	C87.356621,387.437927 75.189301,387.407806 63.022877,387.362305 
	C53.113873,387.325256 45.725685,380.149750 45.662724,370.612732 
	C45.596329,360.556427 52.699711,353.658051 63.151485,353.649170 
	C74.651413,353.639435 86.155167,353.475098 97.649330,353.732178 
	C101.957047,353.828552 103.943573,352.496429 105.506546,348.263611 
	C114.358276,324.291626 131.478821,309.890625 156.788177,305.606995 
	C179.033051,301.842010 198.171478,308.542114 214.156204,323.966980 
	C221.248993,330.811371 226.366226,339.351166 229.184799,348.916870 
	C230.295654,352.686829 232.148010,353.741699 235.900955,353.722748 
	C263.566772,353.582733 291.234192,353.556061 318.899506,353.736542 
	C323.022919,353.763428 324.598206,352.210480 325.887634,348.509888 
	C333.575684,326.445587 349.069733,312.523895 371.491394,306.532104 
	C404.088440,297.821106 438.523071,316.376465 449.258636,348.323914 
	C450.593079,352.294891 452.458771,353.965820 456.725220,353.733795 
	C462.873779,353.399445 469.056183,353.542847 475.219543,353.683868 
	C478.447388,353.757751 479.678467,352.467682 479.670807,349.268463 
	C479.610779,324.268799 479.609100,299.268829 479.674103,274.269165 
	C479.682373,271.089478 477.808411,269.081970 476.058502,266.860352 
	C470.315094,259.568695 464.481628,252.340683 458.982910,244.867355 
	C456.802216,241.903519 454.268372,241.293106 450.875092,241.300522 
	C411.875488,241.385757 372.875641,241.356720 333.875854,241.351517 
	C320.619873,241.349747 314.655945,235.430038 314.654327,222.277313 
	C314.650024,187.944168 314.655090,153.611038 314.650177,119.277893 
	C314.649200,112.398575 314.636475,112.372108 307.797852,112.371819 
	C226.298294,112.368362 144.798737,112.367401 63.299194,112.387749 
	C56.909954,112.389343 51.509247,110.689369 48.236774,104.644073 
	C44.653984,98.025513 44.758163,91.507637 49.112450,85.390617 
	C52.647636,80.424286 57.878864,78.625725 63.871540,78.633759 
	C87.871368,78.665939 111.871254,78.648056 135.871124,78.648186 
	C200.370773,78.648544 264.871338,78.821251 329.369141,78.478264 
	C340.068146,78.421371 349.197083,85.474609 348.519196,97.433434 
	C347.772034,110.614662 348.350494,110.647728 361.790009,110.648293 
	C378.956573,110.649017 396.123749,110.733009 413.289520,110.616318 
	C422.668732,110.552574 429.257050,114.153831 433.544556,122.912086 
	C446.572632,149.524963 460.188751,175.849899 473.227783,202.457520 
	C480.388702,217.070221 490.772552,229.340759 500.459564,242.153015 
	C504.551331,247.564865 509.075867,252.662109 512.750854,258.781708 
	C513.000000,298.020905 513.000000,337.041779 513.000000,376.531342 
M348.349396,199.392868 
	C348.401093,208.459747 347.464905,207.625153 356.759491,207.637375 
	C381.254364,207.669617 405.749329,207.666367 430.244141,207.620071 
	C432.158691,207.616455 434.225555,208.211182 436.004883,206.886444 
	C436.368347,205.208969 435.495209,203.932526 434.844666,202.626572 
	C425.871552,184.612595 416.824341,166.635117 407.953827,148.570862 
	C406.589752,145.792999 404.680939,145.313431 401.959290,145.326508 
	C385.962982,145.403458 369.964355,145.495621 353.970673,145.276001 
	C349.625275,145.216309 348.180725,146.488800 348.247986,150.931381 
	C348.487549,166.757828 348.346497,182.590042 348.349396,199.392868 
M360.885773,385.564331 
	C368.411591,396.468353 378.299286,402.602295 392.006714,400.662537 
	C409.748535,398.151825 421.586578,382.121582 418.320984,364.247101 
	C414.920410,345.633789 396.295685,335.279755 379.341949,339.869324 
	C363.033936,344.284058 349.080139,365.570953 360.885773,385.564331 
M178.295776,398.833038 
	C180.058258,397.923706 181.877502,397.108887 183.574081,396.089844 
	C195.382004,388.997437 201.214081,375.044250 197.273132,361.754608 
	C193.091522,347.653442 181.612976,338.550049 166.970337,338.774963 
	C153.797867,338.977295 142.188766,345.567444 137.356400,361.173065 
	C133.760025,372.787231 136.708527,383.506500 145.186905,391.802643 
	C154.155624,400.578613 165.171402,403.821228 178.295776,398.833038 
z"/>
<path fill="rgb(240, 240, 240)" opacity="1.000000" stroke="none" 
	d="
M1.000000,217.466858 
	C6.502698,209.344009 14.300635,208.482513 23.044111,208.535690 
	C66.665771,208.801025 110.289917,208.654099 153.913193,208.658844 
	C165.645462,208.660126 171.335693,214.147293 171.347916,225.436707 
	C171.359406,236.054932 164.816483,242.343399 153.581589,242.352234 
	C109.625343,242.386765 65.667664,242.203232 21.714022,242.548431 
	C13.099292,242.616074 6.486059,240.309814 1.305251,233.124664 
	C1.000000,227.977905 1.000000,222.955811 1.000000,217.466858 
z"/>
<path fill="rgb(240, 240, 240)" opacity="1.000000" stroke="none" 
	d="
M109.999878,178.384064 
	C87.671295,178.385361 65.836678,178.086288 44.016975,178.526581 
	C34.522068,178.718170 26.630140,171.392654 26.628191,162.059952 
	C26.626043,151.777740 33.210033,144.782974 43.711323,144.702866 
	C61.373112,144.568100 79.036652,144.662567 96.699455,144.661346 
	C124.859970,144.659393 153.020630,144.606445 181.180908,144.686890 
	C190.021286,144.712143 196.662170,150.809128 198.207489,159.865616 
	C199.382553,166.752319 194.752594,174.463898 187.839218,177.505173 
	C185.730759,178.432724 183.627121,178.352097 181.484207,178.354233 
	C157.822769,178.377777 134.161331,178.377548 109.999878,178.384064 
z"/>
<path fill="rgb(240, 240, 240)" opacity="1.000000" stroke="none" 
	d="
M108.986130,271.649170 
	C115.518486,271.988922 121.758316,270.486481 127.302567,274.559357 
	C133.010376,278.752380 136.020920,286.598694 134.067245,293.535492 
	C132.085999,300.570190 125.675789,305.348206 118.073387,305.353485 
	C93.265427,305.370667 68.457428,305.374603 43.649483,305.347076 
	C33.314468,305.335602 26.729891,298.829041 26.657183,288.672821 
	C26.586285,278.769135 33.428844,271.725098 43.555641,271.678284 
	C65.199692,271.578186 86.844528,271.648621 108.986130,271.649170 
z"/>
</svg>