<?xml version="1.0" encoding="UTF-8"?><svg id="a" xmlns="http://www.w3.org/2000/svg" viewBox="0 0 384.39 494.9"><defs><style>.b{fill:rgb(240, 240, 240);}.c{fill:rgb(255, 255, 0);}</style></defs><path class="b" d="M384.28,205.22c.37,25.66-7.32,58.05-26.73,85.31-44.83,62.93-91.73,124.39-137.78,186.46-19.08,25.72-36.72,22.53-54.63-1.79-44.86-60.89-92.71-119.75-134.62-182.59C-15.6,223.47-7.97,135.14,43.42,71.95,96.23,7.01,184.08-16.97,261.64,12.39c75.68,28.65,125.34,103.29,122.64,192.83Zm-30.09-6.19c-.26-76.45-42.39-135.8-107.01-158.78-66.75-23.74-135.61-3.59-181.47,53.1-41.57,51.39-47.6,127.95-9.52,184.27,36.83,54.47,79.44,105.01,116.99,159.02,18.14,26.1,26.68,18.22,41.29-2.23,34.42-48.2,71.03-94.83,106.36-142.38,22.21-29.89,34.82-63.23,33.37-93Z"/><path class="c" d="M285.88,187.84c-.8,49.4-42.88,89.82-93.2,89.54-52.27-.3-94.33-43.81-92.29-95.47,1.99-50.27,43.26-87.35,95.6-85.92,51.8,1.42,90.7,41.18,89.88,91.86Zm-30.67-5.94c-2.63-32.88-22.83-52.96-59.67-54.96-36.75-1.99-65.2,24.35-64.3,59.47,.98,38.04,24.22,56.78,59.47,60.09,34.76,3.27,64.34-25.94,64.51-64.6Z"/><path class="c" d="M259.27,181.31c-.19,43.31-34.25,76.02-74.27,72.36-40.58-3.71-67.34-24.7-68.47-67.31-1.04-39.34,31.71-68.84,74.03-66.61,42.43,2.24,65.68,24.73,68.71,61.56Z"/></svg>